Coordinates
version=1
nRows=38
nColumns=38
inDegrees=no

Units are S.I. units (second, meters, Newtons, ...)
If the header above contains a line with 'inDegrees', this indicates whether rotational values are in degrees (yes) or radians (no).

endheader
time	pelvis_tilt	pelvis_list	pelvis_rotation	pelvis_tx	pelvis_ty	pelvis_tz	hip_flexion_r	hip_adduction_r	hip_rotation_r	knee_angle_r	ankle_angle_r	subtalar_angle_r	mtp_angle_r	hip_flexion_l	hip_adduction_l	hip_rotation_l	knee_angle_l	ankle_angle_l	subtalar_angle_l	mtp_angle_l	lumbar_extension	lumbar_bending	lumbar_rotation	arm_flex_r	arm_add_r	arm_rot_r	elbow_flex_r	pro_sup_r	wrist_flex_r	wrist_dev_r	arm_flex_l	arm_add_l	arm_rot_l	elbow_flex_l	pro_sup_l	wrist_flex_l	wrist_dev_l
22.05	2.99365	1.28552	-1.25412	0.68039	1.80178	0.953013	-0.165604	0.0193185	-0.198631	0.463936	-0.212589	0	0	-0.114632	-0.096439	0.193764	0.625996	-0.0837932	0	0	-0.724842	0.186802	-0.0613362	0.680665	-0.343862	0.312136	0.781008	1.35923	0	0	0.642744	-0.194828	-0.00340891	0.708898	1.5708	0	0
22.06	2.99684	1.28322	-1.2568	0.680544	1.80186	0.953084	-0.168359	0.0193988	-0.199316	0.464015	-0.212027	0	0	-0.117367	-0.0967437	0.193464	0.625846	-0.0837415	0	0	-0.729484	0.181474	-0.0511268	0.684703	-0.349053	0.302099	0.773183	1.36291	0	0	0.670849	-0.186352	0.0169001	0.68128	1.5708	0	0
22.07	2.99999	1.28061	-1.25936	0.680701	1.80192	0.953177	-0.171395	0.0195611	-0.200217	0.464202	-0.212089	0	0	-0.120335	-0.0971854	0.193332	0.625708	-0.0840097	0	0	-0.734554	0.176114	-0.0410423	0.688847	-0.354397	0.292049	0.765428	1.36606	0	0	0.698392	-0.17689	0.0365731	0.654088	1.5708	0	0
22.08	3.00396	1.27749	-1.26295	0.680875	1.80198	0.953303	-0.175072	0.0195533	-0.201382	0.464478	-0.212138	0	0	-0.124023	-0.0974602	0.193058	0.62536	-0.0845042	0	0	-0.74027	0.170488	-0.0311512	0.693243	-0.360041	0.28308	0.757883	1.3683	0	0	0.725512	-0.167108	0.0563122	0.627034	1.5708	0	0
22.09	3.00851	1.27396	-1.26761	0.681009	1.80202	0.95344	-0.179212	0.0192798	-0.20221	0.464697	-0.211983	0	0	-0.128386	-0.0974112	0.192267	0.624871	-0.0848654	0	0	-0.746572	0.164841	-0.0216366	0.698506	-0.366079	0.276909	0.750629	1.36996	0	0	0.751678	-0.157321	0.0752373	0.600927	1.5708	0	0
22.1	3.01215	1.27189	-1.27113	0.681158	1.80216	0.953494	-0.182797	0.0195665	-0.201535	0.46242	-0.211987	0	0	-0.130991	-0.0971282	0.192298	0.624976	-0.0849699	0	0	-0.75196	0.159864	-0.0149622	0.705139	-0.370604	0.273853	0.743784	1.37067	0	0	0.772441	-0.149437	0.087648	0.58303	1.5708	0	0
22.11	3.01621	1.26845	-1.2752	0.681353	1.80231	0.953649	-0.187709	0.0199516	-0.201685	0.460518	-0.212635	0	0	-0.135367	-0.0973453	0.191501	0.624401	-0.085041	0	0	-0.758063	0.154888	-0.00704486	0.711306	-0.375189	0.268711	0.735555	1.37246	0	0	0.797138	-0.140349	0.105544	0.556955	1.5708	0	0
22.12	3.01833	1.26611	-1.27747	0.681526	1.80251	0.95374	-0.190542	0.0201515	-0.202476	0.460707	-0.212935	0	0	-0.138358	-0.0976544	0.191118	0.624182	-0.0847758	0	0	-0.763787	0.150842	-0.0013712	0.718589	-0.378401	0.265467	0.72846	1.37353	0	0	0.815692	-0.133502	0.115961	0.541301	1.5708	0	0
22.13	3.02066	1.26381	-1.28014	0.681626	1.8027	0.953827	-0.193966	0.0203782	-0.20211	0.4594	-0.212893	0	0	-0.141442	-0.0976044	0.190701	0.62372	-0.0842918	0	0	-0.769348	0.147202	0.00374829	0.726485	-0.380774	0.261792	0.720556	1.37502	0	0	0.834042	-0.126979	0.126338	0.524494	1.5708	0	0
22.14	3.01952	1.26422	-1.27786	0.681496	1.8028	0.95358	-0.193616	0.0206931	-0.202876	0.45981	-0.211791	0	0	-0.138673	-0.0955826	0.203355	0.647647	-0.108658	0	0	-0.771602	0.145218	0.00787975	0.734689	-0.382746	0.257106	0.710942	1.37938	0	0	0.853504	-0.119976	0.139679	0.503632	1.5708	0	0
22.15	3.02436	1.26127	-1.2842	0.681801	1.80327	0.953939	-0.198461	0.0201813	-0.202721	0.457982	-0.211263	0	0	-0.145504	-0.0970896	0.191289	0.622945	-0.0869853	0	0	-0.77815	0.140326	0.0128685	0.742733	-0.384196	0.253586	0.701677	1.38431	0	0	0.869782	-0.114113	0.150389	0.488153	1.5708	0	0
22.16	3.02457	1.25981	-1.28447	0.681924	1.80357	0.953992	-0.20072	0.0207268	-0.203135	0.457376	-0.210802	0	0	-0.14751	-0.0975403	0.19231	0.623535	-0.08608	0	0	-0.782841	0.137238	0.0168529	0.751443	-0.386437	0.253407	0.692275	1.38734	0	0	0.884015	-0.108337	0.158873	0.476196	1.5708	0	0
22.17	3.02715	1.25604	-1.28744	0.682033	1.80379	0.954156	-0.205767	0.0209499	-0.204055	0.456475	-0.209958	0	0	-0.152468	-0.098066	0.190636	0.622586	-0.0853809	0	0	-0.788786	0.133414	0.0212219	0.762023	-0.387712	0.253517	0.677504	1.39289	0	0	0.901819	-0.101554	0.173776	0.456049	1.5708	0	0
22.18	3.02693	1.25574	-1.28776	0.682108	1.80428	0.954169	-0.207068	0.0210437	-0.204551	0.455616	-0.210233	0	0	-0.153499	-0.0982685	0.189414	0.621996	-0.0848131	0	0	-0.792194	0.131669	0.0233525	0.77093	-0.387859	0.253183	0.669176	1.3957	0	0	0.912181	-0.0982384	0.181076	0.447147	1.5708	0	0
22.19	3.02706	1.25596	-1.2884	0.682182	1.80479	0.954146	-0.20811	0.0210224	-0.2046	0.45413	-0.210653	0	0	-0.153974	-0.0980363	0.189172	0.621878	-0.0843003	0	0	-0.794918	0.129663	0.0251566	0.779755	-0.38772	0.25316	0.660085	1.39911	0	0	0.922197	-0.0950105	0.188568	0.438011	1.5708	0	0
22.2	3.02692	1.25702	-1.2887	0.682249	1.80538	0.954073	-0.208523	0.0209912	-0.204319	0.452076	-0.21066	0	0	-0.153666	-0.09758	0.189948	0.621794	-0.0839513	0	0	-0.796679	0.127813	0.0265601	0.788251	-0.387508	0.253376	0.651119	1.4032	0	0	0.931319	-0.0921008	0.19532	0.429642	1.5708	0	0
22.21	3.02579	1.25809	-1.28812	0.682315	1.80604	0.954015	-0.207937	0.0207243	-0.205511	0.452461	-0.210612	0	0	-0.153506	-0.0975406	0.190396	0.621396	-0.0836478	0	0	-0.798259	0.126468	0.0277585	0.796429	-0.386879	0.253512	0.64257	1.40748	0	0	0.939514	-0.0896516	0.20031	0.422238	1.5708	0	0
22.22	3.02364	1.25966	-1.28679	0.682369	1.80676	0.953938	-0.206654	0.020591	-0.206209	0.453205	-0.210379	0	0	-0.152895	-0.0976458	0.190545	0.621095	-0.0832357	0	0	-0.79932	0.125634	0.0285018	0.804366	-0.385667	0.25373	0.634729	1.41234	0	0	0.946283	-0.0882215	0.203474	0.416651	1.5708	0	0
22.23	3.02074	1.26208	-1.28496	0.682425	1.80758	0.953832	-0.204492	0.0204839	-0.206329	0.453978	-0.210004	0	0	-0.151442	-0.097609	0.190729	0.620851	-0.0826825	0	0	-0.799501	0.125418	0.0287826	0.811859	-0.383771	0.253473	0.627842	1.41788	0	0	0.951129	-0.0876542	0.204056	0.413375	1.5708	0	0
22.24	3.01797	1.26482	-1.28305	0.682445	1.80841	0.953698	-0.202459	0.0205006	-0.206242	0.453724	-0.2097	0	0	-0.149631	-0.0972898	0.191484	0.620745	-0.0819893	0	0	-0.799231	0.125218	0.0291482	0.818139	-0.382125	0.252204	0.621778	1.42323	0	0	0.95495	-0.0863129	0.202482	0.411451	1.5708	0	0
22.25	3.01547	1.267	-1.28125	0.682464	1.80923	0.95356	-0.201078	0.0206242	-0.206163	0.453258	-0.209484	0	0	-0.148371	-0.0971469	0.192241	0.620785	-0.0809775	0	0	-0.799183	0.124666	0.0297539	0.824439	-0.380374	0.250946	0.613818	1.43021	0	0	0.959482	-0.0847985	0.202827	0.408527	1.5708	0	0
22.26	3.01324	1.26868	-1.27985	0.682507	1.81006	0.953454	-0.200224	0.0207514	-0.205909	0.452838	-0.209333	0	0	-0.147817	-0.0971395	0.192547	0.620399	-0.080136	0	0	-0.799481	0.123987	0.0305818	0.83006	-0.378574	0.249659	0.605819	1.43735	0	0	0.963845	-0.083551	0.205267	0.405574	1.5708	0	0
22.27	3.01152	1.27005	-1.27909	0.682519	1.8109	0.953366	-0.199675	0.0206849	-0.20547	0.452702	-0.208827	0	0	-0.147761	-0.0969167	0.192952	0.619831	-0.0794306	0	0	-0.799959	0.123124	0.0316301	0.83455	-0.376646	0.246959	0.598331	1.44438	0	0	0.967948	-0.0820793	0.208272	0.402524	1.5708	0	0
22.28	3.01034	1.27102	-1.27892	0.682513	1.81173	0.953286	-0.19957	0.0205517	-0.205094	0.452706	-0.207924	0	0	-0.14818	-0.096724	0.192748	0.619316	-0.0786885	0	0	-0.800755	0.122008	0.0332355	0.838343	-0.375483	0.244286	0.590824	1.45178	0	0	0.97221	-0.080043	0.212013	0.398948	1.5708	0	0
22.29	3.0084	1.2725	-1.27789	0.682545	1.81266	0.953197	-0.199087	0.0207068	-0.204556	0.452258	-0.207297	0	0	-0.148164	-0.0968363	0.192471	0.618571	-0.0779579	0	0	-0.80106	0.121575	0.0345408	0.840974	-0.374348	0.241448	0.584978	1.45977	0	0	0.975433	-0.079159	0.216313	0.396418	1.5708	0	0
22.3	3.00593	1.27432	-1.27629	0.682595	1.81366	0.953103	-0.198437	0.0210678	-0.203653	0.451278	-0.20712	0	0	-0.147869	-0.097107	0.192133	0.617691	-0.0772411	0	0	-0.800872	0.121223	0.0358065	0.841951	-0.373263	0.236939	0.580435	1.46754	0	0	0.977739	-0.0782978	0.219537	0.394705	1.5708	0	0
22.31	3.00379	1.27637	-1.2749	0.682622	1.81472	0.952985	-0.197831	0.0213552	-0.202813	0.449943	-0.206965	0	0	-0.147412	-0.0971752	0.191784	0.616864	-0.0764907	0	0	-0.800235	0.120663	0.036924	0.841527	-0.372624	0.230963	0.577388	1.47557	0	0	0.979453	-0.0773474	0.221873	0.393503	1.5708	0	0
22.32	3.00137	1.27858	-1.27341	0.682619	1.81583	0.952849	-0.197135	0.021588	-0.201743	0.448553	-0.206467	0	0	-0.146895	-0.0971026	0.191409	0.616044	-0.075674	0	0	-0.799277	0.120155	0.0380851	0.840197	-0.372307	0.224088	0.576407	1.48412	0	0	0.980513	-0.0765848	0.223374	0.392915	1.5708	0	0
22.33	2.99922	1.28072	-1.2722	0.6826	1.817	0.952708	-0.196221	0.021399	-0.201504	0.448218	-0.205532	0	0	-0.146605	-0.0968485	0.191344	0.615139	-0.0747512	0	0	-0.798249	0.119698	0.0390994	0.838168	-0.371931	0.216379	0.57759	1.49265	0	0	0.980865	-0.0761757	0.224458	0.393094	1.5708	0	0
22.34	2.99736	1.28272	-1.27139	0.682541	1.8182	0.952563	-0.195192	0.0207996	-0.202099	0.448915	-0.204433	0	0	-0.146619	-0.0963818	0.191216	0.614243	-0.0736404	0	0	-0.797138	0.119253	0.0399823	0.835821	-0.371323	0.208252	0.580413	1.50086	0	0	0.980341	-0.0758843	0.224821	0.394115	1.5708	0	0
22.35	2.99522	1.28457	-1.27058	0.68246	1.81939	0.952432	-0.194612	0.0204177	-0.2017	0.448895	-0.203522	0	0	-0.146907	-0.0958701	0.191235	0.613266	-0.0725346	0	0	-0.795946	0.119022	0.0407187	0.833807	-0.370368	0.201187	0.583912	1.50762	0	0	0.979034	-0.0762346	0.22527	0.395747	1.5708	0	0
22.36	2.9921	1.2868	-1.26841	0.682429	1.8207	0.952288	-0.194166	0.0206875	-0.200776	0.447642	-0.202617	0	0	-0.146764	-0.0958012	0.191726	0.61216	-0.0713269	0	0	-0.794097	0.119107	0.0413168	0.830749	-0.369104	0.192883	0.588375	1.51533	0	0	0.976804	-0.0771734	0.226358	0.398339	1.5708	0	0
22.37	2.98912	1.28945	-1.26599	0.682435	1.82211	0.952111	-0.193615	0.0209888	-0.200567	0.445916	-0.201858	0	0	-0.146221	-0.0958255	0.192079	0.610983	-0.0702996	0	0	-0.791481	0.119207	0.0416986	0.826767	-0.367664	0.184404	0.592575	1.52283	0	0	0.973952	-0.0782257	0.227792	0.400837	1.5708	0	0
22.38	2.9862	1.29222	-1.26386	0.6824	1.82353	0.951921	-0.192827	0.0210646	-0.200293	0.44445	-0.201087	0	0	-0.145665	-0.0955836	0.192259	0.609783	-0.0692947	0	0	-0.788549	0.119389	0.042289	0.822739	-0.366483	0.177038	0.596111	1.53004	0	0	0.970437	-0.0793141	0.229285	0.403375	1.5708	0	0
22.39	2.98314	1.29502	-1.26192	0.682338	1.82497	0.951718	-0.191911	0.0210019	-0.199395	0.443283	-0.200146	0	0	-0.145195	-0.0952123	0.192313	0.60864	-0.0681989	0	0	-0.785302	0.119631	0.0428762	0.818318	-0.36515	0.169773	0.599736	1.53677	0	0	0.966233	-0.0812073	0.232212	0.406602	1.5708	0	0
22.4	2.97967	1.29808	-1.25944	0.68226	1.82648	0.951501	-0.190941	0.0210465	-0.198294	0.441854	-0.199137	0	0	-0.144467	-0.0949708	0.192222	0.60755	-0.0670535	0	0	-0.78145	0.12005	0.0434976	0.812885	-0.363813	0.161846	0.603918	1.54329	0	0	0.961293	-0.083072	0.235884	0.410324	1.5708	0	0
22.41	2.9753	1.30134	-1.25621	0.682163	1.82807	0.95128	-0.189806	0.0212161	-0.197017	0.440321	-0.198124	0	0	-0.143741	-0.0949014	0.191691	0.606026	-0.065874	0	0	-0.777133	0.120565	0.0445043	0.806821	-0.362961	0.154653	0.608179	1.54971	0	0	0.955502	-0.0842188	0.23838	0.41449	1.5708	0	0
22.42	2.97095	1.30458	-1.25295	0.682061	1.82968	0.951078	-0.189275	0.0217057	-0.194992	0.437507	-0.197224	0	0	-0.143213	-0.094834	0.191348	0.604233	-0.0647355	0	0	-0.772777	0.121053	0.0454168	0.800075	-0.3624	0.148011	0.612985	1.55591	0	0	0.949193	-0.085364	0.239837	0.419232	1.5708	0	0
